<svg width="200" height="200" viewBox="0 0 200 200" fill="none" xmlns="http://www.w3.org/2000/svg">
<rect width="200" height="200" fill="#F5F5F5"/>
<g filter="url(#filter0_b_0_1)">
<circle r="100" transform="matrix(-1 0 0 1 100 100)" fill="#5690E7"/>
<circle r="99.5" transform="matrix(-1 0 0 1 100 100)" stroke="black"/>
</g>
<path d="M28.7891 87.2656C29.7005 87.3698 30.4688 87.4479 31.0938 87.5C31.7188 87.526 32.2135 87.5521 32.5781 87.5781C33.0208 87.6042 33.3724 87.6172 33.6328 87.6172C34.0755 87.6172 34.5833 87.6042 35.1562 87.5781C35.651 87.5521 36.224 87.513 36.875 87.4609C37.5521 87.3828 38.2812 87.2656 39.0625 87.1094C38.6979 87.5 38.3984 87.8776 38.1641 88.2422C37.9297 88.5807 37.7474 88.8932 37.6172 89.1797C37.4609 89.4922 37.3307 89.7786 37.2266 90.0391C37.1224 90.3776 37.0052 90.8984 36.875 91.6016C36.7448 92.2005 36.6016 93.0469 36.4453 94.1406C36.3151 95.2344 36.1458 96.6667 35.9375 98.4375C36.8229 98.4635 37.5911 98.4766 38.2422 98.4766C38.8932 98.4505 39.4401 98.4375 39.8828 98.4375H41.1719C41.5365 98.4115 41.9531 98.3854 42.4219 98.3594C43.2031 98.3333 44.388 98.2552 45.9766 98.125C46.1068 96.9271 46.1719 95.8984 46.1719 95.0391C46.1979 94.1536 46.1849 93.4115 46.1328 92.8125C46.0807 92.1354 46.0026 91.5625 45.8984 91.0938C45.8203 90.8333 45.7031 90.5208 45.5469 90.1562C45.4167 89.8438 45.2344 89.4661 45 89.0234C44.7917 88.5547 44.5052 87.9948 44.1406 87.3438C44.8177 87.4479 45.4167 87.526 45.9375 87.5781C46.4844 87.6042 46.9401 87.6302 47.3047 87.6562C47.7214 87.6823 48.0729 87.6953 48.3594 87.6953C48.6458 87.6953 49.0234 87.6823 49.4922 87.6562C49.8828 87.6302 50.3646 87.6172 50.9375 87.6172C51.5104 87.5911 52.2135 87.5521 53.0469 87.5C52.8385 87.8646 52.6562 88.2422 52.5 88.6328C52.3438 89.0234 52.2135 89.375 52.1094 89.6875C52.0052 90.0521 51.901 90.4167 51.7969 90.7812C51.6667 91.3281 51.5495 92.1224 51.4453 93.1641C51.3672 94.2057 51.2891 95.3646 51.2109 96.6406C51.1589 97.9167 51.1068 99.2448 51.0547 100.625C51.0286 102.005 51.0026 103.307 50.9766 104.531C50.9766 105.755 50.9896 106.849 51.0156 107.812C51.0417 108.75 51.0938 109.414 51.1719 109.805C51.25 110.273 51.3802 110.755 51.5625 111.25C51.7188 111.693 51.9271 112.174 52.1875 112.695C52.4479 113.19 52.7865 113.659 53.2031 114.102L43.7891 114.805C44.1797 114.44 44.4922 114.089 44.7266 113.75C44.9609 113.385 45.1432 113.073 45.2734 112.812C45.4036 112.526 45.4948 112.253 45.5469 111.992C45.5729 111.68 45.612 111.133 45.6641 110.352C45.7161 109.701 45.7682 108.776 45.8203 107.578C45.8724 106.38 45.9245 104.792 45.9766 102.812C45.612 102.812 45.1693 102.826 44.6484 102.852C44.1536 102.852 43.6849 102.865 43.2422 102.891C42.7214 102.917 42.1745 102.93 41.6016 102.93C41.0286 102.956 40.4297 102.982 39.8047 103.008C39.2839 103.06 38.6979 103.112 38.0469 103.164C37.4219 103.19 36.7969 103.229 36.1719 103.281C36.1198 104.375 36.1198 105.339 36.1719 106.172C36.224 106.979 36.3021 107.669 36.4062 108.242C36.5104 108.919 36.6406 109.505 36.7969 110C36.9531 110.469 37.1224 110.938 37.3047 111.406C37.4609 111.823 37.6432 112.266 37.8516 112.734C38.0859 113.203 38.3203 113.62 38.5547 113.984C38.0599 113.932 37.6042 113.893 37.1875 113.867C36.7708 113.815 36.4062 113.763 36.0938 113.711C35.7292 113.685 35.3776 113.659 35.0391 113.633C34.7005 113.633 34.2969 113.62 33.8281 113.594C33.4115 113.568 32.8906 113.555 32.2656 113.555C31.6406 113.529 30.9115 113.516 30.0781 113.516C30.5729 113.021 30.9635 112.539 31.25 112.07C31.5625 111.576 31.7839 111.133 31.9141 110.742C32.0703 110.273 32.1745 109.844 32.2266 109.453C32.2526 109.115 32.2656 108.477 32.2656 107.539C32.2917 106.602 32.2917 105.534 32.2656 104.336C32.2656 103.112 32.2526 101.836 32.2266 100.508C32.2005 99.1536 32.1615 97.8906 32.1094 96.7188C32.0833 95.5469 32.0443 94.5443 31.9922 93.7109C31.9661 92.8516 31.9401 92.3177 31.9141 92.1094C31.7839 91.6406 31.5885 91.1328 31.3281 90.5859C31.0938 90.1432 30.7812 89.6354 30.3906 89.0625C30 88.4635 29.4661 87.8646 28.7891 87.2656ZM53.9844 88.0859C54.8698 88.1901 55.612 88.2682 56.2109 88.3203C56.8359 88.3464 57.3438 88.3854 57.7344 88.4375C58.2031 88.4896 58.5677 88.5156 58.8281 88.5156C59.1146 88.5417 59.5443 88.5286 60.1172 88.4766C60.612 88.4245 61.276 88.3594 62.1094 88.2812C62.9688 88.2031 64.0625 88.0859 65.3906 87.9297C64.7917 88.4505 64.3099 88.9583 63.9453 89.4531C63.6068 89.9219 63.3464 90.3385 63.1641 90.7031C62.9297 91.1458 62.7865 91.5625 62.7344 91.9531C62.6302 92.5781 62.5391 93.4375 62.4609 94.5312C62.4089 95.599 62.3568 96.7708 62.3047 98.0469C62.2526 99.3229 62.2266 100.638 62.2266 101.992C62.2266 103.346 62.2396 104.635 62.2656 105.859C62.3177 107.057 62.3958 108.125 62.5 109.062C62.6302 110 62.7865 110.677 62.9688 111.094C63.2292 111.562 63.5026 112.031 63.7891 112.5C64.0495 112.891 64.362 113.294 64.7266 113.711C65.0911 114.128 65.5078 114.466 65.9766 114.727C64.4401 114.648 63.2161 114.609 62.3047 114.609H60.8984C60.4818 114.609 59.9479 114.635 59.2969 114.688C58.75 114.74 58.0599 114.792 57.2266 114.844C56.3932 114.896 55.3906 114.974 54.2188 115.078C54.8177 114.427 55.2865 113.802 55.625 113.203C55.9635 112.604 56.237 112.083 56.4453 111.641C56.6797 111.12 56.8359 110.625 56.9141 110.156C57.0182 109.479 57.0964 108.646 57.1484 107.656C57.2266 106.641 57.2786 105.56 57.3047 104.414C57.3307 103.242 57.3307 102.057 57.3047 100.859C57.3047 99.6354 57.2786 98.4635 57.2266 97.3438C57.1745 96.224 57.0964 95.2083 56.9922 94.2969C56.9141 93.3854 56.8099 92.6562 56.6797 92.1094C56.6016 91.7708 56.4453 91.3932 56.2109 90.9766C56.0026 90.612 55.7161 90.1953 55.3516 89.7266C55.013 89.2318 54.5573 88.6849 53.9844 88.0859ZM65.3906 86.4844C67.1354 86.6927 68.6458 86.849 69.9219 86.9531C71.1979 87.0312 72.2526 87.0964 73.0859 87.1484C74.0495 87.2005 74.8568 87.2135 75.5078 87.1875C76.1849 87.1615 77.1094 87.0964 78.2812 86.9922C79.2708 86.9141 80.5729 86.8099 82.1875 86.6797C83.8021 86.5234 85.8203 86.3151 88.2422 86.0547C88.2682 86.6536 88.2812 87.2396 88.2812 87.8125C88.3073 88.3594 88.3333 88.8411 88.3594 89.2578C88.3854 89.7526 88.3984 90.2083 88.3984 90.625C88.3984 91.0677 88.3724 91.6276 88.3203 92.3047C88.2682 92.8776 88.1771 93.6068 88.0469 94.4922C87.9427 95.3516 87.7734 96.3802 87.5391 97.5781C87.1745 96.1719 86.8229 95.0391 86.4844 94.1797C86.1458 93.2943 85.8333 92.5911 85.5469 92.0703C85.2344 91.4714 84.9219 91.0156 84.6094 90.7031C84.2708 90.4688 83.8672 90.2734 83.3984 90.1172C82.9818 89.987 82.4479 89.8828 81.7969 89.8047C81.1719 89.7266 80.4297 89.7396 79.5703 89.8438C79.4401 93.2812 79.349 96.0677 79.2969 98.2031C79.2448 100.339 79.2057 102.005 79.1797 103.203C79.1536 104.635 79.1406 105.664 79.1406 106.289C79.1667 107.174 79.3099 108.047 79.5703 108.906C79.7786 109.635 80.1172 110.391 80.5859 111.172C81.0547 111.953 81.7318 112.643 82.6172 113.242H77.8516C77.4089 113.242 76.862 113.268 76.2109 113.32C75.6641 113.372 74.9609 113.424 74.1016 113.477C73.2682 113.529 72.2917 113.62 71.1719 113.75C71.5625 113.073 71.875 112.461 72.1094 111.914C72.3438 111.367 72.526 110.898 72.6562 110.508C72.8125 110.039 72.9297 109.622 73.0078 109.258C73.0339 108.737 73.099 107.682 73.2031 106.094C73.2292 105.443 73.2552 104.635 73.2812 103.672C73.3333 102.708 73.3854 101.562 73.4375 100.234C73.5156 98.9062 73.5807 97.3828 73.6328 95.6641C73.7109 93.9193 73.7891 91.9531 73.8672 89.7656C73.3984 89.6354 72.9557 89.6484 72.5391 89.8047C72.1224 89.9349 71.7578 90.1042 71.4453 90.3125C71.0807 90.5729 70.7292 90.8854 70.3906 91.25C70.0521 91.6927 69.6745 92.2656 69.2578 92.9688C68.8932 93.5677 68.4766 94.362 68.0078 95.3516C67.5391 96.3151 67.0052 97.513 66.4062 98.9453C66.276 97.4349 66.1849 96.1979 66.1328 95.2344C66.0807 94.2448 66.0417 93.4766 66.0156 92.9297C65.9896 92.2786 65.9766 91.7969 65.9766 91.4844C65.9766 91.1979 65.9505 90.8203 65.8984 90.3516C65.8464 89.9609 65.7812 89.4531 65.7031 88.8281C65.625 88.1771 65.5208 87.3958 65.3906 86.4844ZM87.8125 100.664C88.8281 100.69 89.7526 100.703 90.5859 100.703C91.4453 100.703 92.1875 100.703 92.8125 100.703C93.5417 100.703 94.2057 100.69 94.8047 100.664C95.4297 100.664 96.224 100.638 97.1875 100.586C98.0208 100.56 99.0625 100.521 100.312 100.469C101.589 100.417 103.138 100.352 104.961 100.273L104.766 104.258C103.307 104.154 102.083 104.089 101.094 104.062C100.13 104.01 99.349 103.971 98.75 103.945C98.0469 103.919 97.474 103.919 97.0312 103.945C96.5885 103.971 95.9635 104.01 95.1562 104.062C94.4792 104.115 93.5547 104.18 92.3828 104.258C91.237 104.31 89.7786 104.401 88.0078 104.531L87.8125 100.664ZM111.875 88.5547C113.177 88.6328 114.271 88.6979 115.156 88.75C116.068 88.776 116.823 88.8021 117.422 88.8281C118.099 88.8542 118.672 88.8542 119.141 88.8281C119.609 88.8021 120.247 88.737 121.055 88.6328C121.732 88.5547 122.63 88.4375 123.75 88.2812C124.896 88.099 126.315 87.8646 128.008 87.5781C127.409 88.1771 126.94 88.724 126.602 89.2188C126.289 89.6875 126.042 90.0911 125.859 90.4297C125.651 90.8464 125.508 91.1979 125.43 91.4844C125.378 91.7448 125.43 92.3958 125.586 93.4375C125.742 94.4792 125.964 95.7161 126.25 97.1484C126.536 98.5547 126.849 100.065 127.188 101.68C127.526 103.268 127.865 104.766 128.203 106.172C128.542 107.552 128.841 108.737 129.102 109.727C129.388 110.69 129.596 111.263 129.727 111.445C130.117 111.992 130.365 112.357 130.469 112.539C130.573 112.695 130.755 112.839 131.016 112.969C131.12 113.021 131.289 113.099 131.523 113.203C131.732 113.307 132.005 113.438 132.344 113.594C132.708 113.75 133.164 113.932 133.711 114.141C132.695 114.193 131.823 114.232 131.094 114.258C130.365 114.258 129.766 114.271 129.297 114.297C128.75 114.323 128.281 114.349 127.891 114.375C127.5 114.375 127.031 114.401 126.484 114.453C126.016 114.505 125.404 114.557 124.648 114.609C123.919 114.661 123.06 114.714 122.07 114.766C122.591 114.401 123.008 114.076 123.32 113.789C123.659 113.477 123.919 113.216 124.102 113.008C124.31 112.747 124.453 112.513 124.531 112.305C124.583 112.07 124.622 111.719 124.648 111.25C124.674 110.833 124.674 110.286 124.648 109.609C124.622 108.906 124.557 107.995 124.453 106.875L114.18 107.93C113.919 108.372 113.724 108.763 113.594 109.102C113.464 109.414 113.372 109.688 113.32 109.922C113.242 110.208 113.216 110.443 113.242 110.625C113.294 110.833 113.385 111.081 113.516 111.367C113.646 111.628 113.828 111.94 114.062 112.305C114.323 112.643 114.701 113.047 115.195 113.516C114.544 113.49 113.88 113.477 113.203 113.477C112.526 113.477 111.901 113.49 111.328 113.516C110.651 113.542 109.987 113.568 109.336 113.594C108.685 113.62 107.943 113.659 107.109 113.711C106.406 113.763 105.586 113.828 104.648 113.906C103.685 113.958 102.656 114.036 101.562 114.141C102.24 113.828 102.812 113.516 103.281 113.203C103.75 112.865 104.141 112.552 104.453 112.266C104.818 111.953 105.13 111.654 105.391 111.367C105.573 111.107 105.938 110.508 106.484 109.57C107.031 108.607 107.643 107.474 108.32 106.172C109.023 104.87 109.753 103.477 110.508 101.992C111.289 100.508 111.992 99.1146 112.617 97.8125C113.242 96.4844 113.75 95.3385 114.141 94.375C114.531 93.4115 114.727 92.7865 114.727 92.5C114.674 92.1615 114.544 91.7839 114.336 91.3672C114.154 91.0026 113.867 90.5859 113.477 90.1172C113.112 89.6484 112.578 89.1276 111.875 88.5547ZM123.984 103.984C123.828 103.073 123.685 102.292 123.555 101.641C123.424 100.964 123.32 100.404 123.242 99.9609C123.138 99.4401 123.06 98.9844 123.008 98.5938C122.93 98.2292 122.839 97.7604 122.734 97.1875C122.63 96.6927 122.5 96.0807 122.344 95.3516C122.214 94.5964 122.044 93.6979 121.836 92.6562C120.352 95.625 119.193 97.9297 118.359 99.5703C117.552 101.185 116.966 102.37 116.602 103.125C116.159 104.01 115.911 104.531 115.859 104.688L123.984 103.984ZM132.07 88.0859C132.956 88.1901 133.698 88.2682 134.297 88.3203C134.922 88.3464 135.43 88.3854 135.82 88.4375C136.289 88.4896 136.654 88.5156 136.914 88.5156C137.201 88.5417 137.63 88.5286 138.203 88.4766C138.698 88.4245 139.362 88.3594 140.195 88.2812C141.055 88.2031 142.148 88.0859 143.477 87.9297C142.878 88.4505 142.396 88.9583 142.031 89.4531C141.693 89.9219 141.432 90.3385 141.25 90.7031C141.016 91.1458 140.872 91.5625 140.82 91.9531C140.716 92.5781 140.625 93.4375 140.547 94.5312C140.495 95.599 140.443 96.7708 140.391 98.0469C140.339 99.3229 140.312 100.638 140.312 101.992C140.312 103.346 140.326 104.635 140.352 105.859C140.404 107.057 140.482 108.125 140.586 109.062C140.716 110 140.872 110.677 141.055 111.094C141.315 111.562 141.589 112.031 141.875 112.5C142.135 112.891 142.448 113.294 142.812 113.711C143.177 114.128 143.594 114.466 144.062 114.727C142.526 114.648 141.302 114.609 140.391 114.609H138.984C138.568 114.609 138.034 114.635 137.383 114.688C136.836 114.74 136.146 114.792 135.312 114.844C134.479 114.896 133.477 114.974 132.305 115.078C132.904 114.427 133.372 113.802 133.711 113.203C134.049 112.604 134.323 112.083 134.531 111.641C134.766 111.12 134.922 110.625 135 110.156C135.104 109.479 135.182 108.646 135.234 107.656C135.312 106.641 135.365 105.56 135.391 104.414C135.417 103.242 135.417 102.057 135.391 100.859C135.391 99.6354 135.365 98.4635 135.312 97.3438C135.26 96.224 135.182 95.2083 135.078 94.2969C135 93.3854 134.896 92.6562 134.766 92.1094C134.688 91.7708 134.531 91.3932 134.297 90.9766C134.089 90.612 133.802 90.1953 133.438 89.7266C133.099 89.2318 132.643 88.6849 132.07 88.0859ZM150.586 88.5547C151.888 88.6328 152.982 88.6979 153.867 88.75C154.779 88.776 155.534 88.8021 156.133 88.8281C156.81 88.8542 157.383 88.8542 157.852 88.8281C158.32 88.8021 158.958 88.737 159.766 88.6328C160.443 88.5547 161.341 88.4375 162.461 88.2812C163.607 88.099 165.026 87.8646 166.719 87.5781C166.12 88.1771 165.651 88.724 165.312 89.2188C165 89.6875 164.753 90.0911 164.57 90.4297C164.362 90.8464 164.219 91.1979 164.141 91.4844C164.089 91.7448 164.141 92.3958 164.297 93.4375C164.453 94.4792 164.674 95.7161 164.961 97.1484C165.247 98.5547 165.56 100.065 165.898 101.68C166.237 103.268 166.576 104.766 166.914 106.172C167.253 107.552 167.552 108.737 167.812 109.727C168.099 110.69 168.307 111.263 168.438 111.445C168.828 111.992 169.076 112.357 169.18 112.539C169.284 112.695 169.466 112.839 169.727 112.969C169.831 113.021 170 113.099 170.234 113.203C170.443 113.307 170.716 113.438 171.055 113.594C171.419 113.75 171.875 113.932 172.422 114.141C171.406 114.193 170.534 114.232 169.805 114.258C169.076 114.258 168.477 114.271 168.008 114.297C167.461 114.323 166.992 114.349 166.602 114.375C166.211 114.375 165.742 114.401 165.195 114.453C164.727 114.505 164.115 114.557 163.359 114.609C162.63 114.661 161.771 114.714 160.781 114.766C161.302 114.401 161.719 114.076 162.031 113.789C162.37 113.477 162.63 113.216 162.812 113.008C163.021 112.747 163.164 112.513 163.242 112.305C163.294 112.07 163.333 111.719 163.359 111.25C163.385 110.833 163.385 110.286 163.359 109.609C163.333 108.906 163.268 107.995 163.164 106.875L152.891 107.93C152.63 108.372 152.435 108.763 152.305 109.102C152.174 109.414 152.083 109.688 152.031 109.922C151.953 110.208 151.927 110.443 151.953 110.625C152.005 110.833 152.096 111.081 152.227 111.367C152.357 111.628 152.539 111.94 152.773 112.305C153.034 112.643 153.411 113.047 153.906 113.516C153.255 113.49 152.591 113.477 151.914 113.477C151.237 113.477 150.612 113.49 150.039 113.516C149.362 113.542 148.698 113.568 148.047 113.594C147.396 113.62 146.654 113.659 145.82 113.711C145.117 113.763 144.297 113.828 143.359 113.906C142.396 113.958 141.367 114.036 140.273 114.141C140.951 113.828 141.523 113.516 141.992 113.203C142.461 112.865 142.852 112.552 143.164 112.266C143.529 111.953 143.841 111.654 144.102 111.367C144.284 111.107 144.648 110.508 145.195 109.57C145.742 108.607 146.354 107.474 147.031 106.172C147.734 104.87 148.464 103.477 149.219 101.992C150 100.508 150.703 99.1146 151.328 97.8125C151.953 96.4844 152.461 95.3385 152.852 94.375C153.242 93.4115 153.438 92.7865 153.438 92.5C153.385 92.1615 153.255 91.7839 153.047 91.3672C152.865 91.0026 152.578 90.5859 152.188 90.1172C151.823 89.6484 151.289 89.1276 150.586 88.5547ZM162.695 103.984C162.539 103.073 162.396 102.292 162.266 101.641C162.135 100.964 162.031 100.404 161.953 99.9609C161.849 99.4401 161.771 98.9844 161.719 98.5938C161.641 98.2292 161.549 97.7604 161.445 97.1875C161.341 96.6927 161.211 96.0807 161.055 95.3516C160.924 94.5964 160.755 93.6979 160.547 92.6562C159.062 95.625 157.904 97.9297 157.07 99.5703C156.263 101.185 155.677 102.37 155.312 103.125C154.87 104.01 154.622 104.531 154.57 104.688L162.695 103.984Z" fill="black"/>
<defs>
<filter id="filter0_b_0_1" x="-4" y="-4" width="208" height="208" filterUnits="userSpaceOnUse" color-interpolation-filters="sRGB">
<feFlood flood-opacity="0" result="BackgroundImageFix"/>
<feGaussianBlur in="BackgroundImageFix" stdDeviation="2"/>
<feComposite in2="SourceAlpha" operator="in" result="effect1_backgroundBlur_0_1"/>
<feBlend mode="normal" in="SourceGraphic" in2="effect1_backgroundBlur_0_1" result="shape"/>
</filter>
</defs>
</svg>
